<svg width="60" height="60" viewBox="0 0 60 60" fill="none" xmlns="http://www.w3.org/2000/svg">
<rect width="60" height="60" rx="20" fill="#E7EDFF"/>
<ellipse cx="30" cy="30" rx="19" ry="19" fill="#4471FF"/>
<path d="M22.4713 39.1814V35.1853L29.4368 39.3479L26.092 41.3459L22.4713 39.1814ZM30.2874 39.1814V34.8523L32.1034 33.7701L33.6322 32.8543V41.1794L30.2874 39.1814ZM34.1954 32.8543L35.7241 33.7701L37.5402 34.8523V39.1814L34.1954 41.1794V32.8543ZM22.7586 34.6858L24.2874 33.7701L26.1034 32.6878L27.9195 33.7701L29.7356 34.8523V38.8484L22.7701 34.6858H22.7586ZM18.8506 32.3429L22.1954 30.3449L25.5402 32.3429L24.0115 33.2587L22.1954 34.3409L18.8506 32.3429ZM28.1954 33.2587L26.6667 32.3429L33.6322 28.1804V32.1764L31.8161 33.2587L30 34.3409L28.1839 33.2587H28.1954ZM34.1954 28.1804L37.5402 30.1784V34.1744L36.0115 33.2587L34.1954 32.1764V28.1804ZM38.1034 30.1784L41.4483 28.1804V32.1764L38.1034 34.1744V30.1784ZM18.5632 27.8474L21.908 25.8494V29.8454L18.5632 31.8434V27.8474ZM22.4713 29.8454V25.8494L24 26.7651L25.8161 27.8474V31.8434L22.4713 29.8454ZM26.3793 27.8474L28.1954 26.7651L30.0115 25.6829L31.8276 26.7651L33.3563 27.6809L26.3908 31.8434V27.8474H26.3793ZM34.4712 27.6809L36 26.7651L37.8161 25.6829L41.1609 27.6809L37.8161 29.6789L34.4712 27.6809ZM32.1034 26.2537L30.2874 25.1715V21.1754L37.2529 25.338L35.7241 26.2537L33.908 27.336L32.092 26.2537H32.1034ZM24.2759 26.2537L22.4598 25.1715V20.8424L25.8046 18.8444V27.1695L24.2759 26.2537ZM26.3793 18.8444L29.7241 20.8424V25.1715L27.908 26.2537L26.3793 27.1695V18.8444ZM30.5632 20.6759L33.908 18.6779L37.5402 20.8424V24.8385L30.5747 20.6759H30.5632ZM33.908 18L30 20.331L26.092 18L21.908 20.4975V25.1715L18 27.5025V32.5094L21.908 34.8404V39.5025L26.092 42L30 39.669L33.908 42L38.092 39.5025V34.8404L42 32.5094V27.5025L38.092 25.1715V20.4975L33.908 18Z" fill="#1B1B1B"/>
</svg>
