<svg width="38" height="38" viewBox="0 0 38 38" fill="none" xmlns="http://www.w3.org/2000/svg">
<rect width="38" height="38" rx="8.76923" fill="#09C0D7"/>
<path d="M19.0001 16.7539C19.4253 16.7539 19.7726 17.1003 19.7726 17.5255C19.7726 17.9135 20.088 18.228 20.476 18.228C20.8631 18.228 21.1785 17.9135 21.1785 17.5255C21.1785 16.5723 20.5575 15.7679 19.7026 15.4738V15.0752C19.7026 14.6881 19.3881 14.3718 19.0001 14.3718C18.6112 14.3718 18.2967 14.6881 18.2967 15.0752V15.4738C17.4419 15.7679 16.8226 16.5723 16.8226 17.5255C16.8226 18.7276 17.7989 19.7039 19.0001 19.7039C19.4253 19.7039 19.7726 20.0511 19.7726 20.4763C19.7726 20.9024 19.4253 21.2488 19.0001 21.2488C18.5749 21.2488 18.2285 20.9024 18.2285 20.4763C18.2285 20.0883 17.9132 19.773 17.5251 19.773C17.1362 19.773 16.8226 20.0883 16.8226 20.4763C16.8226 21.4295 17.4419 22.233 18.2967 22.5271V22.9258C18.2967 23.3147 18.6112 23.63 19.0001 23.63C19.3881 23.63 19.7026 23.3147 19.7026 22.9258V22.5271C20.5575 22.233 21.1785 21.4295 21.1785 20.4763C21.1785 19.2751 20.2014 18.298 19.0001 18.298C18.5749 18.298 18.2285 17.9516 18.2285 17.5255C18.2285 17.1003 18.5749 16.7539 19.0001 16.7539ZM24.8903 22.9045C25.2349 23.0861 25.6592 22.9541 25.8399 22.6122C26.4246 21.5075 26.7329 20.2584 26.7329 19.0005C26.7329 14.7377 23.2629 11.2686 19.0001 11.2686C14.7364 11.2686 11.2674 14.7377 11.2674 19.0005C11.2674 23.2642 14.7364 26.7332 19.0001 26.7332C20.2394 26.7332 21.4708 26.4338 22.5613 25.866C22.9059 25.6879 23.0397 25.2618 22.8607 24.9181C22.6818 24.5753 22.2575 24.4388 21.912 24.6187C21.0093 25.09 20.0286 25.3283 19.0001 25.3283C15.5116 25.3283 12.6723 22.4899 12.6723 19.0005C12.6723 15.5128 15.5116 12.6736 19.0001 12.6736C22.4887 12.6736 25.3279 15.5128 25.3279 19.0005C25.3279 20.0307 25.0745 21.0522 24.5979 21.954C24.4154 22.2977 24.5465 22.7229 24.8903 22.9045ZM19.0001 8.45508C16.9635 8.45508 14.9862 9.03798 13.2827 10.1391C12.9558 10.35 12.8628 10.7849 13.0736 11.1109C13.2854 11.4369 13.7186 11.529 14.0463 11.32C15.5204 10.3668 17.2355 9.86184 19.0001 9.86184C24.0398 9.86184 28.1388 13.9616 28.1388 19.0005C28.1388 24.0402 24.0398 28.14 19.0001 28.14C13.9604 28.14 9.86059 24.0402 9.86059 19.0005C9.86059 17.2527 10.3558 15.5527 11.2939 14.0866C11.503 13.7588 11.4073 13.3238 11.0795 13.1148C10.7527 12.9057 10.3177 13.0014 10.1095 13.3283C9.02698 15.0212 8.45471 16.9842 8.45471 19.0005C8.45471 24.8162 13.1844 29.5459 19.0001 29.5459C24.815 29.5459 29.5455 24.8162 29.5455 19.0005C29.5455 13.1865 24.815 8.45508 19.0001 8.45508Z" fill="white"/>
</svg>
