<svg width="32" height="32" viewBox="0 0 32 32" fill="none" xmlns="http://www.w3.org/2000/svg">
<path d="M5.96171 28.2418V22.9138L15.2491 28.4638L10.7893 31.1278L5.96171 28.2418ZM16.3831 28.2418V22.4698L18.8046 21.0268L20.8429 19.8057V30.9058L16.3831 28.2418ZM21.5939 19.8057L23.6322 21.0268L26.0536 22.4698V28.2418L21.5939 30.9058V19.8057ZM6.34485 22.2478L8.38314 21.0268L10.8046 19.5837L13.2261 21.0268L15.6475 22.4698V27.7978L6.36014 22.2478H6.34485ZM1.13408 19.1239L5.59386 16.4599L10.0536 19.1239L8.01534 20.3449L5.59386 21.7879L1.13408 19.1239ZM13.5939 20.3449L11.5556 19.1239L20.8429 13.5738V18.9019L18.4214 20.3449L16 21.7879L13.5785 20.3449H13.5939ZM21.5939 13.5738L26.0536 16.2379V21.5659L24.0153 20.3449L21.5939 18.9019V13.5738ZM26.8046 16.2379L31.2644 13.5738V18.9019L26.8046 21.5659V16.2379ZM0.750943 13.1298L5.21072 10.4658V15.7939L0.750943 18.4579V13.1298ZM5.96171 15.7939V10.4658L8 11.6868L10.4214 13.1298V18.4579L5.96171 15.7939ZM11.1724 13.1298L13.5939 11.6868L16.0153 10.2438L18.4368 11.6868L20.4751 12.9078L11.1877 18.4579V13.1298H11.1724ZM21.9617 12.9078L24 11.6868L26.4214 10.2438L30.8812 12.9078L26.4214 15.5719L21.9617 12.9078ZM18.8046 11.005L16.3831 9.56194V4.23389L25.6705 9.78394L23.6322 11.005L21.2107 12.448L18.7893 11.005H18.8046ZM8.3678 11.005L5.94637 9.56194V3.78989L10.4061 1.12587V12.226L8.3678 11.005ZM11.1724 1.12587L15.6322 3.78989V9.56194L13.2107 11.005L11.1724 12.226V1.12587ZM16.7509 3.56789L21.2107 0.903865L26.0536 3.78989V9.11794L16.7663 3.56789H16.7509ZM21.2107 0L16 3.10803L10.7893 0L5.21072 3.33003V9.56194L0 12.67V19.3459L5.21072 22.4539V28.67L10.7893 32L16 28.892L21.2107 32L26.7893 28.67V22.4539L32 19.3459V12.67L26.7893 9.56194V3.33003L21.2107 0Z" fill="black"/>
</svg>
