<svg width="17" height="17" viewBox="0 0 17 17" fill="none" xmlns="http://www.w3.org/2000/svg">
<path d="M4.41016 8.50058V5.49487C4.41908 4.90405 4.5445 4.32079 4.77923 3.77853C5.01395 3.23626 5.35338 2.74564 5.77804 2.33478C6.20271 1.92391 6.70427 1.60088 7.25399 1.38419C7.80371 1.16751 8.39079 1.06142 8.98158 1.07201V1.07201C9.57238 1.06142 10.1595 1.16751 10.7092 1.38419C11.2589 1.60088 11.7605 1.92391 12.1851 2.33478C12.6098 2.74564 12.9492 3.23626 13.1839 3.77853C13.4187 4.32079 13.5441 4.90405 13.553 5.49487V8.50058" stroke="#5DAF01" stroke-width="1.5" stroke-linecap="round" stroke-linejoin="round"/>
<path d="M2.69596 6.78613H3.83881C3.99037 6.78613 4.13571 6.84634 4.24288 6.9535C4.35004 7.06066 4.41024 7.20601 4.41024 7.35756V10.7861C4.41024 10.9377 4.35004 11.083 4.24288 11.1902C4.13571 11.2974 3.99037 11.3576 3.83881 11.3576H2.69596C2.39285 11.3576 2.10216 11.2372 1.88784 11.0228C1.67351 10.8085 1.5531 10.5178 1.5531 10.2147V7.92899C1.5531 7.62589 1.67351 7.3352 1.88784 7.12087C2.10216 6.90654 2.39285 6.78613 2.69596 6.78613V6.78613Z" stroke="#5DAF01" stroke-width="1.5" stroke-linecap="round" stroke-linejoin="round"/>
<path d="M15.2673 11.3574H14.1244C13.9729 11.3574 13.8275 11.2972 13.7204 11.1901C13.6132 11.0829 13.553 10.9375 13.553 10.786V7.35742C13.553 7.20587 13.6132 7.06052 13.7204 6.95336C13.8275 6.8462 13.9729 6.78599 14.1244 6.78599H15.2673C15.5704 6.78599 15.8611 6.9064 16.0754 7.12073C16.2897 7.33506 16.4102 7.62575 16.4102 7.92885V10.2146C16.4102 10.5177 16.2897 10.8084 16.0754 11.0227C15.8611 11.237 15.5704 11.3574 15.2673 11.3574V11.3574Z" stroke="#5DAF01" stroke-width="1.5" stroke-linecap="round" stroke-linejoin="round"/>
<path d="M11.2673 14.5007C11.8735 14.5007 12.4549 14.2599 12.8836 13.8312C13.3122 13.4026 13.553 12.8212 13.553 12.215V9.64355" stroke="#5DAF01" stroke-width="0.75" stroke-linecap="round" stroke-linejoin="round"/>
<path d="M11.2675 14.5008C11.2675 14.8797 11.117 15.2431 10.8491 15.511C10.5811 15.7789 10.2178 15.9294 9.8389 15.9294H8.12462C7.74574 15.9294 7.38237 15.7789 7.11446 15.511C6.84655 15.2431 6.69604 14.8797 6.69604 14.5008C6.69604 14.122 6.84655 13.7586 7.11446 13.4907C7.38237 13.2228 7.74574 13.0723 8.12462 13.0723H9.8389C10.2178 13.0723 10.5811 13.2228 10.8491 13.4907C11.117 13.7586 11.2675 14.122 11.2675 14.5008Z" stroke="#5DAF01" stroke-width="0.75" stroke-linecap="round" stroke-linejoin="round"/>
</svg>
