<svg width="24" height="8" viewBox="0 0 24 8" fill="none" xmlns="http://www.w3.org/2000/svg">
<path d="M20.5714 6.57157C21.9916 6.57157 23.1429 5.4203 23.1429 4.00014C23.1429 2.57998 21.9916 1.42871 20.5714 1.42871C19.1513 1.42871 18 2.57998 18 4.00014C18 5.4203 19.1513 6.57157 20.5714 6.57157Z" stroke="#4F4F4F" stroke-width="1.5" stroke-linecap="round" stroke-linejoin="round"/>
<path d="M11.9997 6.57157C13.4198 6.57157 14.5711 5.4203 14.5711 4.00014C14.5711 2.57998 13.4198 1.42871 11.9997 1.42871C10.5795 1.42871 9.42822 2.57998 9.42822 4.00014C9.42822 5.4203 10.5795 6.57157 11.9997 6.57157Z" stroke="#4F4F4F" stroke-width="1.5" stroke-linecap="round" stroke-linejoin="round"/>
<path d="M3.42836 6.57157C4.84852 6.57157 5.99979 5.4203 5.99979 4.00014C5.99979 2.57998 4.84852 1.42871 3.42836 1.42871C2.0082 1.42871 0.856934 2.57998 0.856934 4.00014C0.856934 5.4203 2.0082 6.57157 3.42836 6.57157Z" stroke="#4F4F4F" stroke-width="1.5" stroke-linecap="round" stroke-linejoin="round"/>
</svg>
